<?xml version="1.0" encoding="utf-8"?>
<!-- Generator: Adobe Illustrator 27.7.0, SVG Export Plug-In . SVG Version: 6.00 Build 0)  -->
<svg version="1.1" id="Layer_1" xmlns="http://www.w3.org/2000/svg" xmlns:xlink="http://www.w3.org/1999/xlink" x="0px" y="0px"
	 viewBox="0 0 240 240" style="enable-background:new 0 0 240 240;" xml:space="preserve">
<style type="text/css">
	.st0{fill:#EFB30E;}
</style>
<g>
	<path class="st0" d="M196.7,58.8L196.7,58.8c-13.9-40.5-54.9-46.8-72.6-47.6c0,0-1.5-0.1-4.1-0.1h-0.1c-2.6,0-4.1,0.1-4.1,0.1
		C98.1,12,57.2,18.4,43.3,58.8c-11.8,34.5,10.6,73.5,6,78.8c-18.2,21.1,6.6,54.5,9.9,57.3c6.1,5,25.5-5.1,22.4,0.1
		c-2.3,4-4.5,33.8-4.5,33.8h6l2.9-10.4l5.1-0.1l1,10.5h10.5l1-10l3.5-0.5l0.5,10.5h8.5l0.4-10.7h6.9l0.4,10.7h8.5l0.5-10.5l3.5,0.5
		l1,10h10.5l1-10.5l5.1,0.1l2.9,10.4h6c0,0-2.1-29.9-4.5-33.8c-3.1-5.2,16.3,4.8,22.4-0.1c3.4-2.8,28.1-36.2,9.9-57.3
		C186.1,132.4,208.5,93.3,196.7,58.8z M84.6,183.2c-6.8,0-13.1-2.4-18.1-6.5l-5.4,5.4c-1.7,1.7-4.6,1.7-6.3,0s-1.7-4.6,0-6.3
		l5.8-5.8c-2.9-4.5-4.6-9.8-4.6-15.5c0-9.5,4.7-17.9,11.8-23.1l-2.8-6.2c-1-2.2,0-4.9,2.2-5.9c2.2-1,4.9,0,5.9,2.2l2.7,5.9
		c2.8-0.9,5.7-1.4,8.8-1.4c10.6,0,19.8,5.8,24.7,14.3l7.2-2.6c2.3-0.8,4.9,0.4,5.7,2.7c0.8,2.3-0.4,4.9-2.7,5.7l-7.1,2.6
		c0.4,1.9,0.6,3.9,0.6,6C113.2,170.4,100.4,183.2,84.6,183.2z M132.1,196c0,0.7-0.9,1-1.3,0.4c-1-1.4-2.5-2.9-4.4-4.3
		c-2.1-1.5-4.1-2.5-5.6-3c-1.5,0.6-3.5,1.5-5.6,3c-1.9,1.4-3.4,3-4.5,4.3c-0.4,0.5-1.3,0.3-1.3-0.4c-0.3-5.1-0.1-15.5,7.6-23.1
		c1-1,2.3-1.9,3.8-2.7c1.5,0.8,2.8,1.7,3.8,2.7C132.2,180.5,132.5,190.9,132.1,196z M169.6,172.4L169.6,172.4
		c-0.3,0.2-0.5,0.3-0.8,0.3c-4.5,0.6-15.5,1.5-26.7-4.8c-4.6-2.6-8.1-5.8-10.5-8.4c-0.9-1-0.6-2.6,0.6-3.2
		c4.8-2.5,10.7-5.1,17.6-7.2c8.5-2.7,16.2-3.9,22.4-4.4c0.3,0,0.6,0,0.9,0.1c5.1,1.9,6.8,4.9,7.2,5.8
		C183.1,156.5,179.3,166.2,169.6,172.4z"/>
	<path class="st0" d="M228,0H12C5.4,0,0,5.4,0,12v216c0,6.6,5.4,12,12,12h216c6.6,0,12-5.4,12-12V12C240,5.4,234.6,0,228,0z
		 M235,228c0,3.9-3.1,7-7,7H12c-3.9,0-7-3.1-7-7V12c0-3.9,3.1-7,7-7h216c3.9,0,7,3.1,7,7V228z"/>
	<path class="st0" d="M104.4,146.9c-0.6-1.8-0.1-3.7,1.3-4.9c-4.3-7.2-12.1-12-21.1-12c-2.5,0-4.9,0.4-7.2,1.1
		c0.8,2.2-0.2,4.6-2.3,5.6c-2,0.9-4.3,0.2-5.5-1.6c-4.6,3.5-7.9,8.6-9.1,14.5c-0.3,1.6-0.5,3.3-0.5,5c0,3,0.5,5.8,1.5,8.5
		c0.6,1.6,1.3,3.1,2.2,4.5c0.3-0.1,0.6-0.2,1-0.2c1.3-0.1,2.6,0.3,3.6,1.3c0.8,0.8,1.2,1.9,1.3,2.9c0,0.7-0.1,1.4-0.4,2.1
		c4.2,3.4,9.6,5.5,15.4,5.5c11.9,0,21.8-8.5,24.1-19.7c0.2-0.8,0.3-1.6,0.4-2.3c0.1-0.8,0.1-1.7,0.1-2.5c0-1.6-0.2-3.3-0.5-4.8
		C106.8,149.9,105,148.8,104.4,146.9z M84.6,162.9c-4.6,0-8.2-3.7-8.2-8.2c0-4.6,3.7-8.2,8.2-8.2c4.6,0,8.2,3.7,8.2,8.2
		C92.9,159.2,89.2,162.9,84.6,162.9z"/>
</g>
</svg>
